DataType=double
version=3
OpenSimVersion=4.5-2023-11-26-efcdfd3eb
endheader
time	EMG01_right_gast_med	EMG02_right_glut_max	EMG03_left_gast_med	EMG04_left_glut_max	EMG05_right_glut_med	EMG06_right_bic_fem	EMG07_right_rect_fem	EMG08_right_vast_lat	EMG09_right_vast_med	EMG10_right_tens_fasc_lat	EMG11_left_glut_med	EMG12_left_bic_fem	EMG13_left_rect_fem	EMG14_left_vast_lat	EMG15_left_vast_med	EMG16_left_tens_fasc_lat
0	0.1067006808611348	0.1312923016765987	-7.752270717139638	3.828072537316026	-2.175007540317058	1.098507736399107	-0.1989617618052536	-0.9737085393023859	-4.666382748736555	-0.6671489746753789	1.371047333045649	-0.4722480320902455	0.4175996733420874	0.3749424018166154	0.3741692429523477	4.978988769224426
0.01	0.7671878358569103	2.603843532435413	-3.326938484367318	5.544261875175397	1.516929507588728	3.250545212012758	0.155204880472718	-0.6811357806963223	-4.942233523972262	3.611922775846544	2.335732200099725	-0.1245377777897581	0.9716245427297328	0.6750610469092788	1.332806151026755	11.04487951493788
0.02	1.420830445762842	4.975316607929587	1.519307139968207	7.214058856011514	5.173186846144848	5.42841267872121	0.4983983707351443	-0.3761657015696658	-5.200462063724355	7.765385490995436	3.276416878807483	0.2468905908804895	1.529510349424774	0.976631885759247	2.296449744726752	16.91296082420117
0.03	2.062050983873051	7.231741289040356	6.771526134689987	8.816706230451748	8.769377968852336	7.62410713614233	0.8299243370169315	-0.05929698462817151	-5.429017117712554	11.75272855834399	4.188342731572283	0.6407770360607942	2.086121871996547	1.277063718781129	3.255746430982032	22.53811516687234
0.04	2.685488242408701	9.360856531728544	12.41055951349591	10.33245110230367	12.28331931134113	9.829398690074358	1.149235088740511	0.2690934654937081	-5.61448968883414	15.53652229158239	5.066886621765874	1.055633817442786	2.636371910847229	1.573844886163793	4.201620204163973	27.87740442409622
0.05	3.286088943822278	11.35235143313583	18.41304240219926	11.74295413513121	15.69553017556443	12.03589569851889	1.45593024975649	0.6087689580029693	-5.742182386558473	19.08320927266477	5.907604771459125	1.489748747978801	3.175304590380701	1.864592405185838	5.12545144716774	32.89073549120727
0.06	3.859192113007341	13.19806914345741	24.75142735757792	13.03167687724493	18.9896574027192	14.2351145748651	1.749755093196501	0.9596439516786111	-5.796213955655492	22.36380352251045	6.706277151064354	1.941189108156748	3.698174515678395	2.147096177455734	6.019237103938876	37.54147675001866
0.07000000000000001	4.400604442641561	14.89216862022295	31.39401963858831	14.18423862248629	22.15281212737065	16.41855401310744	2.030596710953541	1.321786786366231	-5.759660268935999	25.35447696214361	7.458951998799409	2.407806270472243	4.200520303222127	2.419357079065461	6.875728452761967	41.79701053561894
0.08	4.906665222257906	16.43124062643659	38.30503016618731	15.18873542020158	25.17580976291109	18.57777327364032	2.29847819814012	1.695413969434316	-5.614732179293321	28.03701568938564	8.161989979975802	2.887241190970877	4.678231194790636	2.679618137556651	7.688544208290883	45.62920913713197
0.09	5.374299715428598	17.81437545995488	45.44465491586091	16.03601504300739	28.05330809351122	20.70447400231018	2.55355105856395	2.080876223799955	-5.342989725212226	30.39913252644673	8.81210742147629	3.376931020563037	5.127605691924511	2.926388352292876	8.452257910677785	49.01482502377153
0.1	5.801060155259812	19.04318077212004	52.76919094531819	16.71990279921314	30.78384197473024	22.79058488070054	2.796086059137125	2.478636875371988	-4.925591274241506	32.43462769367734	9.406417989689958	3.874117168180466	5.545401470211978	3.158459011010434	9.162459520985049	51.93578981060715
0.11	6.18515383172207	20.12174885729168	60.23119928031939	17.23737417258885	33.3697564189334	24.82834819440155	3.026462765807939	2.889243414806063	-4.34357531247041	34.1433960309277	9.942472093576949	4.37585520267799	5.928876182656851	3.37491261298561	9.815791890938558	54.37942050086781
0.12	6.525458147069923	21.05657403085521	67.77972395375136	17.58867142766885	35.81704255417859	26.81040712741363	3.245157973832514	3.313293219568074	-3.578171787771983	35.53128568698323	10.41829320051248	4.879027007350922	6.27581903922281	3.575124750368005	10.40996336093158	56.3385351816793
